REM DIRINDEX 1\2\3,1\2\4,1\2\5,1\2\6
REM DIRNAME folder01,folder02,folder03,folder04,folder05,folder06
TITLE ""
FILE "101 101.mp3" MP3
  TRACK 01 AUDIO
    TITLE "0:"
    INDEX 01 00:00:00
  TRACK 02 AUDIO
    TITLE "3:cjc157_3806"
    INDEX 01 00:00:11
  TRACK 03 AUDIO
    TITLE "0:"
    INDEX 01 00:01:56
  TRACK 04 AUDIO
    TITLE "4:cjc157_3807"
    INDEX 01 00:02:28
  TRACK 05 AUDIO
    TITLE "0:"
    INDEX 01 00:03:39
  TRACK 06 AUDIO
    TITLE "5:cjc157_3808"
    INDEX 01 00:04:09
  TRACK 07 AUDIO
    TITLE "0:"
    INDEX 01 00:06:02
  TRACK 08 AUDIO
    TITLE "5:cjc157_3809"
    INDEX 01 00:06:47
  TRACK 09 AUDIO
    TITLE "0:"
    INDEX 01 00:07:66
  TRACK 10 AUDIO
    TITLE "5:cjc157_3810"
    INDEX 01 00:08:32
  TRACK 11 AUDIO
    TITLE "0:"
    INDEX 01 00:09:63
  TRACK 12 AUDIO
    TITLE "3:cjc157_3811"
    INDEX 01 00:10:33
  TRACK 13 AUDIO
    TITLE "0:"
    INDEX 01 00:11:54
  TRACK 14 AUDIO
    TITLE "4:cjc157_3812"
    INDEX 01 00:12:26
  TRACK 15 AUDIO
    TITLE "0:"
    INDEX 01 00:13:26
  TRACK 16 AUDIO
    TITLE "5:cjc157_3813"
    INDEX 01 00:14:02
  TRACK 17 AUDIO
    TITLE "0:"
    INDEX 01 00:15:44
  TRACK 18 AUDIO
    TITLE "5:cjc157_3814"
    INDEX 01 00:16:16
  TRACK 19 AUDIO
    TITLE "0:"
    INDEX 01 00:18:05
  TRACK 20 AUDIO
    TITLE "3:cjc157_3815"
    INDEX 01 00:18:52
  TRACK 21 AUDIO
    TITLE "0:"
    INDEX 01 00:19:71
  TRACK 22 AUDIO
    TITLE "4:cjc157_3816"
    INDEX 01 00:20:41
  TRACK 23 AUDIO
    TITLE "0:"
    INDEX 01 00:21:53
  TRACK 24 AUDIO
    TITLE "5:cjc157_3817"
    INDEX 01 00:22:23
  TRACK 25 AUDIO
    TITLE "0:"
    INDEX 01 00:24:25
  TRACK 26 AUDIO
    TITLE "5:cjc157_3818"
    INDEX 01 00:25:03
  TRACK 27 AUDIO
    TITLE "0:"
    INDEX 01 00:26:48
  TRACK 28 AUDIO
    TITLE "3:cjc157_3819"
    INDEX 01 00:27:18
  TRACK 29 AUDIO
    TITLE "0:"
    INDEX 01 00:28:37
  TRACK 30 AUDIO
    TITLE "4:cjc157_3820"
    INDEX 01 00:29:09
  TRACK 31 AUDIO
    TITLE "0:"
    INDEX 01 00:30:18
  TRACK 32 AUDIO
    TITLE "5:cjc157_3821"
    INDEX 01 00:30:63
  TRACK 33 AUDIO
    TITLE "0:"
    INDEX 01 00:34:67
  TRACK 34 AUDIO
    TITLE "3:cjc157_3822"
    INDEX 01 00:35:43
  TRACK 35 AUDIO
    TITLE "0:"
    INDEX 01 00:36:50
  TRACK 36 AUDIO
    TITLE "4:cjc157_3823"
    INDEX 01 00:37:22
  TRACK 37 AUDIO
    TITLE "0:"
    INDEX 01 00:38:45
  TRACK 38 AUDIO
    TITLE "5:cjc157_3824"
    INDEX 01 00:39:15
  TRACK 39 AUDIO
    TITLE "0:"
    INDEX 01 00:41:02
  TRACK 40 AUDIO
    TITLE "5:cjc157_3825"
    INDEX 01 00:41:47
  TRACK 41 AUDIO
    TITLE "0:"
    INDEX 01 00:43:40
  TRACK 42 AUDIO
    TITLE "3:cjc157_3826"
    INDEX 01 00:44:12
  TRACK 43 AUDIO
    TITLE "0:"
    INDEX 01 00:45:39
  TRACK 44 AUDIO
    TITLE "4:cjc157_3827"
    INDEX 01 00:46:06
  TRACK 45 AUDIO
    TITLE "0:"
    INDEX 01 00:47:23
  TRACK 46 AUDIO
    TITLE "5:cjc157_3828"
    INDEX 01 00:47:70
  TRACK 47 AUDIO
    TITLE "0:"
    INDEX 01 00:49:59
  TRACK 48 AUDIO
    TITLE "3:cjc157_3829"
    INDEX 01 00:50:31
  TRACK 49 AUDIO
    TITLE "0:"
    INDEX 01 00:51:26
  TRACK 50 AUDIO
    TITLE "4:cjc157_3830"
    INDEX 01 00:51:73
  TRACK 51 AUDIO
    TITLE "0:"
    INDEX 01 00:53:08
  TRACK 52 AUDIO
    TITLE "5:cjc157_3831"
    INDEX 01 00:53:51
  TRACK 53 AUDIO
    TITLE "0:"
    INDEX 01 00:56:08
  TRACK 54 AUDIO
    TITLE "5:cjc157_3832"
    INDEX 01 00:56:53
  TRACK 55 AUDIO
    TITLE "0:"
    INDEX 01 00:59:02
  TRACK 56 AUDIO
    TITLE "3:cjc157_3833"
    INDEX 01 00:59:53
  TRACK 57 AUDIO
    TITLE "0:"
    INDEX 01 01:00:64
  TRACK 58 AUDIO
    TITLE "4:cjc157_3834"
    INDEX 01 01:01:36
  TRACK 59 AUDIO
    TITLE "0:"
    INDEX 01 01:02:46
  TRACK 60 AUDIO
    TITLE "5:cjc157_3835"
    INDEX 01 01:03:14
  TRACK 61 AUDIO
    TITLE "0:"
    INDEX 01 01:04:72
  TRACK 62 AUDIO
    TITLE "5:cjc157_3836"
    INDEX 01 01:05:48
  TRACK 63 AUDIO
    TITLE "0:"
    INDEX 01 01:08:15
  TRACK 64 AUDIO
    TITLE "3:cjc157_3837"
    INDEX 01 01:08:64
  TRACK 65 AUDIO
    TITLE "0:"
    INDEX 01 01:10:16
  TRACK 66 AUDIO
    TITLE "4:cjc157_3838"
    INDEX 01 01:10:63
  TRACK 67 AUDIO
    TITLE "0:"
    INDEX 01 01:11:72
  TRACK 68 AUDIO
    TITLE "5:cjc157_3839"
    INDEX 01 01:12:54
  TRACK 69 AUDIO
    TITLE "0:"
    INDEX 01 01:14:63
  TRACK 70 AUDIO
    TITLE "3:cjc157_3840"
    INDEX 01 01:15:39
  TRACK 71 AUDIO
    TITLE "0:"
    INDEX 01 01:17:28
  TRACK 72 AUDIO
    TITLE "4:cjc157_3841"
    INDEX 01 01:17:73
  TRACK 73 AUDIO
    TITLE "0:"
    INDEX 01 01:19:17
  TRACK 74 AUDIO
    TITLE "5:cjc157_3842"
    INDEX 01 01:19:64
  TRACK 75 AUDIO
    TITLE "0:"
    INDEX 01 01:22:25
  TRACK 76 AUDIO
    TITLE "5:cjc157_3843"
    INDEX 01 01:22:72
  TRACK 77 AUDIO
    TITLE "0:"
    INDEX 01 01:25:39
